# xmcd
#
# Track frame offsets: 
#        150
#        25832
#        51872
#        70665
#        94507
#        115650
#        135942
#        158582
#        184847
#        205567
#
# Disc length: 3029 seconds
#
# Revision: 2
# Processed by: cddbd v1.5.2PL0 Copyright (c) Steve Scherf et al.
# Submitted via: ExactAudioCopy v0.95b4
#
DISCID=720bd30a
DTITLE=Stacy Lattisaw - What You Need
DYEAR=1989
DGENRE=Soul
TTITLE0=What You Need
TTITLE1=Dance for You
TTITLE2=You Touched the Woman in Me
TTITLE3=R U Man Enuff
TTITLE4=Guilty (Lock Me Up)
TTITLE5=Falling (In Love Again)
TTITLE6=I Don't Have the Heart
TTITLE7=Where Do We Go From Here
TTITLE8=Tender Love
TTITLE9=That's the Reason Why I Love
EXTD=
EXTT0=
EXTT1=
EXTT2=
EXTT3=
EXTT4=
EXTT5=
EXTT6=
EXTT7=
EXTT8=
EXTT9=
PLAYORDER=
